<svg xmlns="http://www.w3.org/2000/svg" width="349.333" height="349.333" preserveAspectRatio="xMidYMid meet" version="1.0" viewBox="0 0 262 262"><metadata>Created by potrace 1.11, written by Peter Selinger 2001-2013</metadata><g fill="#000" stroke="none"><path d="M1480 2611 c0 -5 -9 -12 -19 -16 -24 -7 -171 -155 -171 -172 0 -27 -46 -12 -90 30 -51 49 -112 73 -162 63 -18 -4 -48 -9 -66 -13 -17 -3 -42 -16 -55 -29 -12 -13 -26 -24 -32 -24 -5 0 -27 -18 -49 -40 -52 -53 -45 -70 32 -70 45 0 63 -4 76 -19 21 -23 13 -29 -52 -41 -26 -5 -60 -12 -77 -15 -16 -3 -39 -8 -51 -10 -38 -8 -114 -80 -114 -109 0 -8 -4 -18 -10 -21 -6 -3 -10 -17 -10 -29 0 -13 -16 -41 -35 -62 -19 -21 -35 -42 -35 -47 0 -24 66 -107 117 -147 65 -52 113 -121 113 -162 0 -86 137 -209 194 -174 13 9 20 7 32 -8 21 -29 17 -51 -11 -64 -34 -16 -50 -15 -65 3 -21 25 -30 17 -30 -24 0 -39 0 -39 -47 -46 -161 -22 -269 -88 -327 -199 -16 -31 -53 -75 -87 -105 -82 -73 -93 -97 -85 -191 4 -48 13 -84 24 -100 10 -14 21 -33 25 -42 7 -19 95 -87 114 -88 22 0 73 -35 73 -51 0 -8 -16 -30 -35 -49 -20 -19 -35 -44 -35 -57 0 -16 43 -66 143 -166 78 -79 150 -156 160 -170 14 -21 26 -27 56 -27 30 0 42 -6 55 -25 15 -22 23 -25 80 -25 50 0 65 4 70 17 8 19 -37 92 -62 99 -9 3 -25 10 -34 15 -10 5 -24 9 -31 9 -29 0 -84 36 -149 99 -67 63 -98 108 -98 140 0 42 131 69 138 28 4 -20 -19 -77 -30 -77 -5 0 -8 -8 -8 -19 0 -24 53 -76 94 -91 57 -22 136 -61 141 -71 4 -5 13 -9 21 -9 8 0 29 -13 47 -30 18 -16 35 -30 39 -30 3 0 20 -11 35 -24 21 -17 44 -26 79 -28 39 -2 51 -7 59 -25 16 -38 126 -43 156 -7 9 11 10 17 1 22 -6 4 -15 20 -21 35 -13 32 -65 67 -103 67 -15 0 -47 11 -72 25 -25 14 -54 25 -65 25 -12 0 -21 5 -21 10 0 6 -8 10 -18 10 -11 0 -27 9 -37 20 -10 11 -23 20 -29 20 -15 0 -106 83 -106 96 0 6 7 17 15 24 12 10 22 9 52 -5 21 -9 47 -20 58 -25 44 -20 117 -40 143 -40 28 0 92 51 92 72 0 5 9 21 20 35 15 19 17 30 10 44 -8 13 -5 29 11 58 11 23 23 59 26 81 5 33 3 40 -11 40 -9 0 -24 4 -34 9 -42 23 -86 41 -101 41 -8 0 -30 -14 -47 -31 -62 -60 -85 -13 -36 76 26 48 29 50 74 53 36 2 58 -3 94 -23 57 -32 90 -30 86 4 -3 26 23 61 45 61 26 0 182 82 222 116 21 19 43 34 48 34 5 0 24 16 43 35 32 31 41 34 91 35 69 0 170 32 225 72 56 40 76 35 87 -21 7 -36 6 -46 -7 -53 -31 -17 -12 -114 29 -148 12 -10 18 -10 30 0 8 7 15 17 15 22 0 5 9 21 20 35 28 36 28 157 1 207 -22 39 -19 46 21 46 22 0 42 -13 79 -51 27 -28 49 -56 49 -63 0 -7 11 -23 25 -36 29 -27 31 -42 10 -60 -21 -18 -19 -54 6 -76 12 -10 25 -29 30 -42 9 -24 39 -31 39 -8 0 7 7 19 15 26 11 9 15 34 15 97 0 79 -2 87 -25 105 -14 11 -25 25 -25 32 0 13 -126 159 -168 193 -28 24 -112 33 -112 13 0 -22 -45 -8 -77 25 -20 21 -44 35 -58 35 -31 0 -75 20 -75 34 0 31 -24 89 -45 110 -43 43 -63 93 -58 139 3 23 9 46 14 52 16 16 10 34 -13 37 -34 5 -33 33 3 65 102 89 110 119 53 183 -20 22 -44 40 -53 40 -23 0 -37 28 -45 86 -6 40 -4 53 8 63 9 8 16 20 16 27 0 8 5 14 10 14 16 0 11 36 -7 52 -32 26 -99 42 -130 30 -40 -15 -155 -23 -172 -13 -12 8 -12 12 -2 25 23 27 6 49 -32 41 -17 -3 -52 -9 -77 -11 -43 -5 -110 -32 -110 -45 0 -3 -11 -11 -25 -17 -23 -10 -25 -9 -25 11 0 25 55 97 74 97 7 0 24 13 39 28 27 28 36 75 17 87 -5 3 -10 15 -10 26 0 10 -4 19 -10 19 -5 0 -10 -4 -10 -9z m-120 -291 c0 -23 -35 -46 -45 -29 -7 11 22 49 37 49 4 0 8 -9 8 -20z m-76 -99 c3 -5 1 -24 -5 -42 -6 -19 -13 -40 -15 -47 -3 -10 -10 -9 -29 5 -44 32 -27 92 27 93 9 0 19 -4 22 -9z m556 -71 c49 -101 51 -141 10 -190 -28 -32 -31 -34 -44 -17 -7 9 -19 17 -26 17 -19 0 -140 89 -140 103 0 7 32 34 72 60 73 49 113 57 128 27z m141 -103 c44 -29 50 -67 15 -91 -15 -9 -26 -21 -26 -26 0 -17 -53 -70 -69 -70 -9 0 -24 9 -34 20 -16 19 -16 22 8 60 14 22 25 46 25 54 0 8 5 18 10 21 6 3 10 17 10 31 0 30 17 31 61 1z m-1441 -1112 c0 -13 16 -42 35 -65 37 -45 41 -55 24 -66 -13 -7 -96 71 -105 99 -3 10 0 32 6 48 10 23 15 27 26 18 8 -6 14 -22 14 -34z" transform="translate(0.000000,262.000000) scale(0.100000,-0.100000)"/><path d="M22 2398 c-16 -6 -16 -7 0 -7 19 -1 89 -40 100 -56 4 -5 8 -170 8 -366 l0 -355 -28 -27 c-16 -15 -39 -27 -54 -27 -30 0 -45 -15 -23 -23 22 -9 683 -8 688 0 10 17 12 176 2 180 -5 1 -19 -18 -30 -43 -14 -32 -33 -55 -60 -72 -38 -24 -48 -26 -167 -25 -181 0 -188 9 -188 244 0 178 -6 167 77 148 96 -22 115 -38 132 -109 3 -14 11 -24 16 -22 13 3 14 321 1 325 -5 1 -16 -22 -25 -50 -9 -29 -22 -58 -28 -64 -20 -20 -84 -39 -130 -39 l-43 0 0 169 c0 125 3 172 13 178 6 4 65 7 130 6 152 -2 178 -13 205 -86 29 -77 46 -69 43 23 -4 117 18 110 -328 107 -161 -1 -301 -5 -311 -9z" transform="translate(0.000000,262.000000) scale(0.100000,-0.100000)"/><path d="M2274 888 c-3 -4 13 -16 35 -25 68 -30 71 -43 71 -350 0 -148 -3 -273 -7 -277 -8 -8 -73 53 -73 68 0 6 -15 27 -33 47 -18 19 -49 57 -69 85 -20 27 -48 60 -62 73 -14 14 -26 30 -26 36 0 6 -20 31 -45 55 -25 24 -45 49 -45 55 0 5 -10 21 -22 35 -13 14 -41 48 -62 75 -22 28 -55 67 -75 88 l-35 37 -106 0 -105 0 25 -20 c14 -11 34 -20 45 -20 11 0 28 -12 38 -25 16 -23 18 -52 15 -374 l-3 -349 -23 -25 c-13 -14 -37 -28 -54 -31 -57 -11 -21 -17 107 -17 124 0 157 4 119 17 -105 34 -104 31 -104 384 0 159 4 291 9 294 5 3 24 -12 42 -34 19 -22 53 -62 77 -89 23 -26 42 -52 42 -57 0 -5 15 -25 33 -44 17 -19 45 -53 61 -75 29 -39 62 -78 151 -183 25 -29 45 -56 45 -60 0 -4 21 -30 48 -58 26 -28 58 -68 72 -87 14 -20 33 -37 43 -37 16 0 17 25 17 394 0 357 2 397 18 425 10 18 25 31 37 31 17 0 80 39 64 40 -138 5 -262 4 -265 -2z" transform="translate(0.000000,262.000000) scale(0.100000,-0.100000)"/></g></svg>